# Blender v2.93.5 OBJ File: ''
# www.blender.org
mtllib cell.mtl
o Cylinder
v 0.000000 -1.000000 -1.000000
v 0.000000 1.000000 -1.000000
v 0.866025 -1.000000 -0.500000
v 0.866025 1.000000 -0.500000
v 0.866025 -1.000000 0.500000
v 0.866025 1.000000 0.500000
v -0.000000 -1.000000 1.000000
v -0.000000 1.000000 1.000000
v -0.866025 -1.000000 0.500000
v -0.866025 1.000000 0.500000
v -0.866025 -1.000000 -0.500000
v -0.866025 1.000000 -0.500000
v 0.710796 1.000000 -0.410378
v -0.000000 1.000000 -0.820757
v 0.710796 1.000000 0.410379
v -0.000000 1.000000 0.820757
v -0.710796 1.000000 0.410378
v -0.710796 1.000000 -0.410378
v 0.710796 -0.531331 -0.410378
v -0.000000 -0.531331 -0.820757
v 0.710796 -0.531331 0.410379
v -0.000000 -0.531331 0.820757
v -0.710796 -0.531331 0.410378
v -0.710796 -0.531331 -0.410378
vt 1.000000 0.500000
vt 1.000000 1.000000
vt 0.833333 1.000000
vt 0.833333 0.500000
vt 0.666667 1.000000
vt 0.666667 0.500000
vt 0.500000 1.000000
vt 0.500000 0.500000
vt 0.333333 1.000000
vt 0.333333 0.500000
vt 0.500000 1.000000
vt 0.333333 1.000000
vt 0.166667 1.000000
vt 0.166667 0.500000
vt -0.000000 1.000000
vt -0.000000 0.500000
vt 0.750000 0.490000
vt 0.957846 0.370000
vt 0.957846 0.130000
vt 0.750000 0.010000
vt 0.542154 0.130000
vt 0.542154 0.370000
vt 0.166667 1.000000
vt 0.333333 1.000000
vt 0.166667 1.000000
vt 0.833333 1.000000
vt 0.666667 1.000000
vt 1.000000 1.000000
vt -0.000000 1.000000
vt 0.457846 0.370000
vt 0.250000 0.490000
vt 0.042154 0.370000
vt 0.042154 0.130000
vt 0.250000 0.010000
vt 0.457846 0.130000
vt 0.666667 1.000000
vt 0.500000 1.000000
vt 1.000000 1.000000
vt 0.833333 1.000000
vt -0.000000 1.000000
vn 0.5000 0.0000 -0.8660
vn 1.0000 0.0000 0.0000
vn 0.5000 0.0000 0.8660
vn -0.5000 0.0000 0.8660
vn 0.0000 1.0000 0.0000
vn -1.0000 0.0000 0.0000
vn -0.5000 0.0000 -0.8660
vn 0.0000 -1.0000 0.0000
usemtl None
s off
f 1/1/1 2/2/1 4/3/1 3/4/1
f 3/4/2 4/3/2 6/5/2 5/6/2
f 5/6/3 6/5/3 8/7/3 7/8/3
f 7/8/4 8/7/4 10/9/4 9/10/4
f 10/9/5 8/7/5 16/11/5 17/12/5
f 9/10/6 10/9/6 12/13/6 11/14/6
f 11/14/7 12/13/7 2/15/7 1/16/7
f 1/17/8 3/18/8 5/19/8 7/20/8 9/21/8 11/22/8
f 18/23/2 17/12/2 23/24/2 24/25/2
f 6/5/5 4/3/5 13/26/5 15/27/5
f 12/13/5 10/9/5 17/12/5 18/23/5
f 4/3/5 2/2/5 14/28/5 13/26/5
f 8/7/5 6/5/5 15/27/5 16/11/5
f 2/15/5 12/13/5 18/23/5 14/29/5
f 19/30/5 20/31/5 24/32/5 23/33/5 22/34/5 21/35/5
f 16/11/7 15/27/7 21/36/7 22/37/7
f 13/26/4 14/28/4 20/38/4 19/39/4
f 14/29/3 18/23/3 24/25/3 20/40/3
f 17/12/1 16/11/1 22/37/1 23/24/1
f 15/27/6 13/26/6 19/39/6 21/36/6
