# Blender v2.93.0 OBJ File: 'mapa02_1_prueba22.blend'
# www.blender.org
o Cube.051_Cube.058
v 57.519257 38.717182 26.885357
v 63.519257 38.717182 26.885357
v 58.113289 38.886223 21.366131
v 62.925224 38.886223 21.366131
v 57.669235 57.222038 26.885357
v 57.519257 57.047783 26.885357
v 57.684185 38.764114 17.198313
v 57.519257 38.717182 17.348291
v 57.669235 51.567726 17.327394
v 57.711655 51.341385 17.198313
v 57.683609 50.223789 17.198313
v 57.519257 51.405830 17.348291
v 63.519257 57.047783 26.885357
v 63.369278 57.222038 26.885357
v 63.354328 38.764114 17.198313
v 63.519257 38.717182 17.348291
v 63.326859 51.341385 17.198313
v 63.369278 51.567726 17.327394
v 63.519257 51.405830 17.348291
v 63.354904 50.223789 17.198313
v 58.113289 48.980995 17.348291
v 57.948936 49.169510 17.198313
v 58.230202 49.280952 17.198313
v 58.263268 49.130974 17.348291
v 58.113289 38.886223 17.348291
v 57.948364 38.839291 17.198313
v 62.925224 38.886223 17.348291
v 63.090149 38.839291 17.198313
v 62.775246 49.130974 17.348291
v 62.808311 49.280952 17.198313
v 63.089577 49.169510 17.198313
v 62.925224 48.980995 17.348291
v 58.113289 48.980995 21.366131
v 58.263268 49.130974 21.366131
v 62.775246 49.130974 21.366131
v 62.925224 48.980995 21.366131
vt 0.375048 0.613252
vt 0.385668 0.427068
vt 0.805684 0.387592
vt 0.805684 0.696448
vt 0.020263 0.401724
vt 0.298208 0.432282
vt 0.217865 0.489140
vt 0.124738 0.469769
vt 0.331908 0.612155
vt 0.005736 0.602381
vt 0.009113 0.593896
vt 0.298160 0.602929
vt 0.119850 0.000090
vt 0.801249 0.379313
vt 0.381396 0.419816
vt 0.007771 0.378810
vt 0.013454 0.386679
vt 0.015904 0.395061
vt 0.219706 0.491570
vt 0.214610 0.540187
vt 0.212304 0.542605
vt 0.115060 0.519796
vt 0.341504 0.422419
vt 0.305634 0.427014
vt 0.000090 0.609232
vt 0.370037 0.620081
vt 0.800246 0.704574
vt 0.059565 0.999910
vt 0.376758 0.427831
vt 0.366378 0.611612
vt 0.302020 0.594045
vt 0.308505 0.436494
vt 0.291753 0.596995
vt 0.014093 0.587758
vt 0.301704 0.437541
vt 0.295617 0.592263
vn 0.3772 0.6258 -0.6827
vn -0.3772 0.6258 -0.6827
vn -0.3269 0.8134 -0.4812
vn 0.3269 0.8134 -0.4812
vn 0.5374 0.7460 -0.3932
vn 0.8055 -0.3258 -0.4950
vn 0.7173 -0.2971 -0.6302
vn 0.5773 0.5773 -0.5773
vn 0.3606 0.0024 -0.9327
vn 0.2710 -0.5141 -0.8138
vn -0.1514 0.1198 -0.9812
vn -0.1617 -0.1090 -0.9808
vn -1.0000 0.0000 0.0000
vn -0.8676 0.4279 -0.2531
vn -0.8682 0.1813 -0.4620
vn -0.8666 -0.2530 -0.4300
vn -0.2710 -0.5141 -0.8138
vn 0.1514 0.1198 -0.9812
vn 0.2971 -0.7173 -0.6302
vn -0.2971 -0.7173 -0.6302
vn -0.7173 -0.2971 -0.6302
vn -0.5773 0.5773 -0.5773
vn -0.3606 0.0024 -0.9327
vn 0.1617 -0.1090 -0.9808
vn 0.8666 -0.2530 -0.4300
vn 0.8682 0.1813 -0.4620
vn 0.8676 0.4279 -0.2531
vn 1.0000 0.0000 0.0000
vn -0.2823 0.1892 -0.9405
vn 0.2823 0.1892 -0.9405
vn -0.0770 -0.2950 -0.9524
vn 0.0770 -0.2950 -0.9524
vn -0.8055 -0.3258 -0.4950
vn -0.5374 0.7460 -0.3932
vn 0.2926 -0.8326 -0.4703
vn -0.2926 -0.8326 -0.4703
s 1
f 18/1/1 9/2/2 5/3/3 14/4/4
f 25/5/5 21/6/6 33/7/7 3/8/8
f 20/9/9 15/10/10 28/11/11 31/12/12
f 1/13/13 6/14/14 12/15/15 8/16/16
f 15/10/10 7/17/17 26/18/18 28/11/11
f 3/8/8 33/7/7 34/19/19 35/20/20 36/21/21 4/22/22
f 7/17/17 11/23/23 22/24/24 26/18/18
f 16/25/25 19/26/26 13/27/27 2/28/28
f 10/29/29 17/30/30 30/31/31 23/32/32
f 32/33/33 27/34/34 4/22/22 36/21/21
f 27/34/34 25/5/5 3/8/8 4/22/22
f 24/35/35 29/36/36 35/20/20 34/19/19
f 9/2/2 10/29/29 11/23/23 12/15/15
f 17/30/30 18/1/1 19/26/26 20/9/9
f 21/6/6 22/24/24 23/32/32 24/35/35
f 29/36/36 30/31/31 31/12/12 32/33/33
f 5/3/3 9/2/2 12/15/15 6/14/14
f 11/23/23 7/17/17 8/16/16 12/15/15
f 16/25/25 8/16/16 7/17/17 15/10/10
f 9/2/2 18/1/1 17/30/30 10/29/29
f 19/26/26 16/25/25 15/10/10 20/9/9
f 18/1/1 14/4/4 13/27/27 19/26/26
f 21/6/6 25/5/5 26/18/18 22/24/24
f 28/11/11 26/18/18 25/5/5 27/34/34
f 23/32/32 30/31/31 29/36/36 24/35/35
f 31/12/12 28/11/11 27/34/34 32/33/33
f 30/31/31 17/30/30 20/9/9 31/12/12
f 22/24/24 11/23/23 10/29/29 23/32/32
f 35/20/20 29/36/36 32/33/33 36/21/21
f 33/7/7 21/6/6 24/35/35 34/19/19
