# Blender v2.93.0 OBJ File: 'mapa02_1_prueba23.blend'
# www.blender.org
o Plane
v -24.003105 -0.000000 12.649686
v 15.032127 -0.000000 23.759916
v -24.003105 -0.000000 -12.132904
v 15.032127 -0.000000 -29.767609
v -5.603081 -0.000000 21.340668
v -5.603081 -0.000000 -19.291355
v -27.614326 -0.000000 0.232647
v 25.490822 -0.000000 2.538935
v -4.089302 -0.000000 4.507992
v -27.557014 -0.000000 3.651894
v -27.155754 -0.000000 6.879646
v -26.066658 -0.000000 9.885206
v -0.122108 -0.000000 23.088322
v 5.227806 -0.000000 24.334356
v 10.315620 -0.000000 24.670370
v 24.688438 -0.000000 -6.941040
v 22.477760 -0.000000 -16.563683
v 19.153473 -0.000000 -24.661011
v -11.048569 -0.000000 -16.564709
v -16.150139 -0.000000 -14.906010
v -20.563850 -0.000000 -13.640400
v -20.563850 -0.000000 15.119983
v -16.150139 -0.000000 17.366091
v -11.048569 -0.000000 19.423790
v 10.315620 -0.000000 -30.160995
v 5.227806 -0.000000 -27.546688
v -0.122108 -0.000000 -23.373135
v -4.219398 -0.000000 -0.870361
v -4.562363 -0.000000 -6.738556
v -5.047241 -0.000000 -12.933311
v -26.066658 -0.000000 -9.748142
v -27.155754 -0.000000 -6.725994
v -27.556999 -0.000000 -3.305950
v 19.153473 -0.000000 21.043320
v 22.477760 -0.000000 16.650906
v 24.688438 -0.000000 10.489761
v -5.047241 -0.000000 17.540701
v -4.562363 -0.000000 13.577456
v -4.219398 -0.000000 9.287644
v -10.467270 -0.000000 3.951391
v -16.419487 -0.000000 2.955730
v -22.087868 -0.000000 1.667366
v 17.740997 -0.000000 3.397083
v 10.133087 -0.000000 4.108875
v 2.809013 -0.000000 4.527964
v 2.558548 -0.000000 -1.716784
v 9.722916 -0.000000 -3.153030
v 17.142181 -0.000000 -4.957172
v 1.896225 -0.000000 -8.602161
v 8.625671 -0.000000 -11.089520
v 15.513847 -0.000000 -13.790161
v 0.956612 -0.000000 -15.889317
v 7.048531 -0.000000 -19.273190
v 13.123634 -0.000000 -22.241817
v -22.060036 -0.000000 -2.193569
v -16.426186 -0.000000 -1.281254
v -10.520958 -0.000000 -0.770725
v -21.856422 -0.000000 -6.113621
v -16.402184 -0.000000 -5.736828
v -10.657288 -0.000000 -5.844467
v -21.337349 -0.000000 -9.935246
v -16.300392 -0.000000 -10.298267
v -10.841545 -0.000000 -11.147648
v -21.337349 -0.000000 11.991375
v -16.300392 -0.000000 14.000537
v -10.841545 -0.000000 15.855570
v -21.856422 -0.000000 8.748861
v -16.402184 -0.000000 10.537020
v -10.657288 -0.000000 12.167004
v -22.060036 -0.000000 5.318415
v -16.426186 -0.000000 6.881508
v -10.520958 -0.000000 8.238239
v 0.956612 -0.000000 19.019684
v 7.048531 -0.000000 20.140844
v 13.123634 -0.000000 20.774635
v 1.896225 -0.000000 14.720064
v 8.625671 -0.000000 15.583007
v 15.513847 -0.000000 16.187550
v 2.558548 -0.000000 9.961488
v 9.722916 -0.000000 10.320487
v 17.142181 -0.000000 10.460596
vt 0.625000 0.625000
vt 0.750000 0.625000
vt 0.750000 0.750000
vt 0.625000 0.750000
vt 0.875000 0.625000
vt 0.875000 0.750000
vt 0.750000 0.875000
vt 0.625000 0.875000
vt 0.875000 0.875000
vt 0.500000 0.500000
vt 0.625000 0.500000
vt 0.500000 0.625000
vt 0.750000 0.500000
vt 0.875000 0.500000
vt 1.000000 0.500000
vt 1.000000 0.625000
vt 1.000000 0.750000
vt 1.000000 0.875000
vt 1.000000 1.000000
vt 0.875000 1.000000
vt 0.750000 1.000000
vt 0.625000 1.000000
vt 0.500000 0.875000
vt 0.500000 1.000000
vt 0.500000 0.750000
vt 0.125000 0.625000
vt 0.250000 0.625000
vt 0.250000 0.750000
vt 0.125000 0.750000
vt 0.375000 0.625000
vt 0.375000 0.750000
vt 0.250000 0.875000
vt 0.125000 0.875000
vt 0.375000 0.875000
vt 0.000000 0.500000
vt 0.125000 0.500000
vt 0.000000 0.625000
vt 0.250000 0.500000
vt 0.375000 0.500000
vt 0.375000 1.000000
vt 0.250000 1.000000
vt 0.125000 1.000000
vt 0.000000 0.875000
vt 0.000000 1.000000
vt 0.000000 0.750000
vt 0.125000 0.125000
vt 0.250000 0.125000
vt 0.250000 0.250000
vt 0.125000 0.250000
vt 0.375000 0.125000
vt 0.375000 0.250000
vt 0.250000 0.375000
vt 0.125000 0.375000
vt 0.375000 0.375000
vt 0.000000 0.000000
vt 0.125000 0.000000
vt 0.000000 0.125000
vt 0.250000 0.000000
vt 0.375000 0.000000
vt 0.500000 0.000000
vt 0.500000 0.125000
vt 0.500000 0.250000
vt 0.500000 0.375000
vt 0.000000 0.375000
vt 0.000000 0.250000
vt 0.625000 0.125000
vt 0.750000 0.125000
vt 0.750000 0.250000
vt 0.625000 0.250000
vt 0.875000 0.125000
vt 0.875000 0.250000
vt 0.750000 0.375000
vt 0.625000 0.375000
vt 0.875000 0.375000
vt 0.625000 0.000000
vt 0.750000 0.000000
vt 0.875000 0.000000
vt 1.000000 0.000000
vt 1.000000 0.125000
vt 1.000000 0.250000
vt 1.000000 0.375000
vn 0.0000 1.0000 0.0000
s off
f 46/1/1 47/2/1 50/3/1 49/4/1
f 47/2/1 48/5/1 51/6/1 50/3/1
f 49/4/1 50/3/1 53/7/1 52/8/1
f 50/3/1 51/6/1 54/9/1 53/7/1
f 9/10/1 45/11/1 46/1/1 28/12/1
f 45/11/1 44/13/1 47/2/1 46/1/1
f 44/13/1 43/14/1 48/5/1 47/2/1
f 43/14/1 8/15/1 16/16/1 48/5/1
f 48/5/1 16/16/1 17/17/1 51/6/1
f 51/6/1 17/17/1 18/18/1 54/9/1
f 54/9/1 18/18/1 4/19/1 25/20/1
f 53/7/1 54/9/1 25/20/1 26/21/1
f 52/8/1 53/7/1 26/21/1 27/22/1
f 30/23/1 52/8/1 27/22/1 6/24/1
f 29/25/1 49/4/1 52/8/1 30/23/1
f 28/12/1 46/1/1 49/4/1 29/25/1
f 55/26/1 56/27/1 59/28/1 58/29/1
f 56/27/1 57/30/1 60/31/1 59/28/1
f 58/29/1 59/28/1 62/32/1 61/33/1
f 59/28/1 60/31/1 63/34/1 62/32/1
f 7/35/1 42/36/1 55/26/1 33/37/1
f 42/36/1 41/38/1 56/27/1 55/26/1
f 41/38/1 40/39/1 57/30/1 56/27/1
f 40/39/1 9/10/1 28/12/1 57/30/1
f 57/30/1 28/12/1 29/25/1 60/31/1
f 60/31/1 29/25/1 30/23/1 63/34/1
f 63/34/1 30/23/1 6/24/1 19/40/1
f 62/32/1 63/34/1 19/40/1 20/41/1
f 61/33/1 62/32/1 20/41/1 21/42/1
f 31/43/1 61/33/1 21/42/1 3/44/1
f 32/45/1 58/29/1 61/33/1 31/43/1
f 33/37/1 55/26/1 58/29/1 32/45/1
f 64/46/1 65/47/1 68/48/1 67/49/1
f 65/47/1 66/50/1 69/51/1 68/48/1
f 67/49/1 68/48/1 71/52/1 70/53/1
f 68/48/1 69/51/1 72/54/1 71/52/1
f 1/55/1 22/56/1 64/46/1 12/57/1
f 22/56/1 23/58/1 65/47/1 64/46/1
f 23/58/1 24/59/1 66/50/1 65/47/1
f 24/59/1 5/60/1 37/61/1 66/50/1
f 66/50/1 37/61/1 38/62/1 69/51/1
f 69/51/1 38/62/1 39/63/1 72/54/1
f 72/54/1 39/63/1 9/10/1 40/39/1
f 71/52/1 72/54/1 40/39/1 41/38/1
f 70/53/1 71/52/1 41/38/1 42/36/1
f 10/64/1 70/53/1 42/36/1 7/35/1
f 11/65/1 67/49/1 70/53/1 10/64/1
f 12/57/1 64/46/1 67/49/1 11/65/1
f 73/66/1 74/67/1 77/68/1 76/69/1
f 74/67/1 75/70/1 78/71/1 77/68/1
f 76/69/1 77/68/1 80/72/1 79/73/1
f 77/68/1 78/71/1 81/74/1 80/72/1
f 5/60/1 13/75/1 73/66/1 37/61/1
f 13/75/1 14/76/1 74/67/1 73/66/1
f 14/76/1 15/77/1 75/70/1 74/67/1
f 15/77/1 2/78/1 34/79/1 75/70/1
f 75/70/1 34/79/1 35/80/1 78/71/1
f 78/71/1 35/80/1 36/81/1 81/74/1
f 81/74/1 36/81/1 8/15/1 43/14/1
f 80/72/1 81/74/1 43/14/1 44/13/1
f 79/73/1 80/72/1 44/13/1 45/11/1
f 39/63/1 79/73/1 45/11/1 9/10/1
f 38/62/1 76/69/1 79/73/1 39/63/1
f 37/61/1 73/66/1 76/69/1 38/62/1
