# Blender v2.93.0 OBJ File: ''
# www.blender.org
o Plane
v -0.077621 0.267707 0.035981
v 0.077621 0.267707 0.035981
v -0.030314 1.302911 -0.008749
v 0.030314 1.302911 -0.008749
v -0.087377 1.064131 -0.016506
v -0.098396 0.799656 -0.020264
v -0.080215 0.535182 0.021855
v 0.080215 0.535182 0.021855
v 0.098396 0.799656 -0.020264
v 0.087377 1.064131 -0.016506
v -0.065879 0.015745 0.011209
v 0.065879 0.015745 0.011209
v -0.076670 0.469016 0.030976
v -0.074855 0.402570 0.035642
v -0.075072 0.335560 0.037490
v 0.000000 0.267707 0.035981
v 0.078632 1.129560 -0.012277
v 0.067495 1.190858 -0.009328
v 0.053930 1.243891 -0.008120
v -0.000000 1.356760 -0.009283
v -0.053930 1.243891 -0.008120
v -0.067495 1.190858 -0.009328
v -0.078632 1.129560 -0.012277
v -0.093757 0.998012 -0.021104
v -0.097746 0.931893 -0.025002
v -0.099305 0.865775 -0.025032
v -0.095150 0.733538 -0.012207
v -0.090382 0.667419 -0.002507
v -0.085076 0.601300 0.009656
v 0.075072 0.335560 0.037490
v 0.074855 0.402570 0.035642
v 0.076670 0.469016 0.030976
v 0.085076 0.601300 0.009656
v 0.090382 0.667419 -0.002507
v 0.095150 0.733538 -0.012207
v 0.099305 0.865775 -0.025032
v 0.097746 0.931893 -0.025002
v 0.093757 0.998012 -0.021104
v 0.000000 0.535182 0.021820
v 0.000000 0.799656 -0.020232
v 0.000000 1.064131 -0.016887
v 0.000000 0.000000 0.009591
v -0.081991 0.199558 0.030765
v -0.084427 0.134979 0.024053
v -0.080361 0.078664 0.018112
v 0.080361 0.078664 0.018112
v 0.084427 0.134979 0.024053
v 0.081991 0.199558 0.030765
v 0.000000 1.130020 -0.012753
v 0.000000 1.194531 -0.009719
v 0.000000 1.256747 -0.008445
v 0.000000 0.335560 0.037497
v 0.000000 0.402570 0.035649
v 0.000000 0.469016 0.030964
v 0.000000 0.601300 0.009633
v 0.000000 0.667419 -0.002502
v 0.000000 0.733538 -0.012182
v 0.000000 0.865775 -0.025011
v 0.000000 0.931893 -0.024997
v 0.000000 0.998012 -0.021302
v 0.000000 0.199067 0.030726
v 0.000000 0.131055 0.023652
v 0.000000 0.064933 0.016610
vt 0.500000 0.812500
vt 1.000000 0.812500
vt 1.000000 0.875000
vt 0.500000 0.875000
vt 0.000000 0.875000
vt 0.500000 0.937500
vt 0.000000 0.937500
vt 1.000000 0.937500
vt 0.500000 0.750000
vt 0.000000 0.812500
vt 0.000000 0.750000
vt 1.000000 0.750000
vt 1.000000 1.000000
vt 0.500000 1.000000
vt 0.000000 1.000000
vt 0.000000 0.062500
vt 0.500000 0.075087
vt 0.500000 0.128472
vt 0.000000 0.125000
vt 1.000000 0.062500
vt 1.000000 0.125000
vt 0.500000 0.187934
vt 0.000000 0.187500
vt 1.000000 0.187500
vt 0.000000 0.000000
vt 0.500000 0.034722
vt 1.000000 0.000000
vt 1.000000 0.250000
vt 0.500000 0.250000
vt 0.000000 0.250000
vt 0.000000 0.312500
vt 0.500000 0.312500
vt 0.500000 0.375000
vt 0.000000 0.375000
vt 1.000000 0.312500
vt 1.000000 0.375000
vt 0.500000 0.437500
vt 0.000000 0.437500
vt 1.000000 0.437500
vt 1.000000 0.500000
vt 0.500000 0.500000
vt 0.000000 0.500000
vt 0.000000 0.562500
vt 0.500000 0.562500
vt 0.500000 0.625000
vt 0.000000 0.625000
vt 1.000000 0.562500
vt 1.000000 0.625000
vt 0.500000 0.687500
vt 0.000000 0.687500
vt 1.000000 0.687500
vt 1.000000 0.000000
vt 0.500000 0.012587
vt 0.500000 0.003472
vt 1.000000 0.000000
vt 0.000000 0.000000
vt 0.000000 0.000000
vt 0.500000 0.000434
vt 1.000000 0.000000
vt 0.000000 0.000000
vt 0.000000 0.000000
vt 0.500000 0.000000
vt 1.000000 0.000000
vn 0.0000 -0.0560 0.9984
vn -0.0062 -0.0568 0.9984
vn -0.0080 -0.0376 0.9992
vn 0.0000 -0.0349 0.9994
vn 0.0080 -0.0376 0.9992
vn 0.0000 -0.0046 1.0000
vn 0.0071 -0.0126 0.9999
vn -0.0071 -0.0126 0.9999
vn 0.0000 -0.0660 0.9978
vn 0.0062 -0.0568 0.9984
vn 0.0042 -0.0662 0.9978
vn -0.0042 -0.0662 0.9978
vn -0.0033 0.0087 0.9999
vn 0.0000 0.0087 0.9999
vn 0.0033 0.0087 0.9999
vn -0.0001 0.0023 1.0000
vn 0.0000 0.0026 1.0000
vn 0.0000 0.0489 0.9988
vn -0.0000 0.0490 0.9988
vn 0.0001 0.0023 1.0000
vn 0.0000 0.1035 0.9946
vn 0.0002 0.1043 0.9945
vn -0.0002 0.1043 0.9945
vn 0.0000 -0.0502 0.9987
vn 0.0000 -0.0493 0.9988
vn -0.0003 0.1599 0.9871
vn 0.0000 0.1591 0.9872
vn 0.0003 0.1599 0.9871
vn 0.0002 0.1810 0.9835
vn 0.0000 0.1810 0.9835
vn 0.0000 0.1629 0.9866
vn -0.0000 0.1620 0.9868
vn -0.0002 0.1810 0.9835
vn 0.0000 0.1329 0.9911
vn -0.0002 0.1325 0.9912
vn 0.0002 0.1325 0.9912
vn 0.0003 0.0960 0.9954
vn 0.0000 0.0965 0.9953
vn -0.0003 0.0960 0.9954
vn -0.0002 0.0360 0.9993
vn 0.0000 0.0359 0.9993
vn 0.0000 -0.0288 0.9996
vn 0.0004 -0.0281 0.9996
vn 0.0002 0.0360 0.9993
vn -0.0004 -0.0281 0.9996
vn 0.0000 -0.0627 0.9980
vn 0.0020 -0.0625 0.9980
vn -0.0020 -0.0625 0.9980
vn 0.0000 -0.0902 0.9959
vn 0.0000 -0.0899 0.9959
vn 0.0000 -0.1044 0.9945
vn 0.0000 -0.1070 0.9942
vn 0.0001 -0.1066 0.9943
vn -0.0001 -0.1066 0.9943
vn -0.0006 -0.1083 0.9941
vn 0.0000 -0.1083 0.9941
vn 0.0006 -0.1083 0.9941
s 1
f 49/1/1 17/2/2 18/3/3 50/4/4
f 22/5/5 50/4/4 51/6/6 21/7/7
f 50/4/4 18/3/3 19/8/8 51/6/6
f 41/9/9 49/1/1 23/10/10 5/11/11
f 10/12/12 17/2/2 49/1/1 41/9/9
f 51/6/6 19/8/8 4/13/13 20/14/14
f 21/7/7 51/6/6 20/14/14 3/15/15
f 15/16/16 52/17/17 53/18/18 14/19/19
f 52/17/17 30/20/20 31/21/19 53/18/18
f 14/19/19 53/18/18 54/22/21 13/23/22
f 53/18/18 31/21/19 32/24/23 54/22/21
f 1/25/24 16/26/25 52/17/17 15/16/16
f 16/26/25 2/27/24 30/20/20 52/17/17
f 54/22/21 32/24/23 8/28/26 39/29/27
f 13/23/22 54/22/21 39/29/27 7/30/28
f 29/31/29 55/32/30 56/33/31 28/34/32
f 55/32/30 33/35/33 34/36/32 56/33/31
f 28/34/32 56/33/31 57/37/34 27/38/35
f 56/33/31 34/36/32 35/39/36 57/37/34
f 39/29/27 55/32/30 29/31/29 7/30/28
f 8/28/26 33/35/33 55/32/30 39/29/27
f 57/37/34 35/39/36 9/40/37 40/41/38
f 27/38/35 57/37/34 40/41/38 6/42/39
f 26/43/40 58/44/41 59/45/42 25/46/43
f 58/44/41 36/47/44 37/48/45 59/45/42
f 25/46/43 59/45/42 60/49/46 24/50/47
f 59/45/42 37/48/45 38/51/48 60/49/46
f 40/41/38 58/44/41 26/43/40 6/42/39
f 9/40/37 36/47/44 58/44/41 40/41/38
f 60/49/46 38/51/48 10/12/12 41/9/9
f 24/50/47 60/49/46 41/9/9 5/11/11
f 48/52/49 61/53/50 62/54/51 47/55/51
f 61/53/50 43/56/49 44/57/51 62/54/51
f 47/55/51 62/54/51 63/58/52 46/59/53
f 62/54/51 44/57/51 45/60/54 63/58/52
f 16/26/25 61/53/50 48/52/49 2/27/24
f 1/25/24 43/56/49 61/53/50 16/26/25
f 63/58/52 45/60/54 11/61/55 42/62/56
f 46/59/53 63/58/52 42/62/56 12/63/57
f 23/10/10 49/1/1 50/4/4 22/5/5
