# Blender v2.93.0 OBJ File: 'mapa02_1_prueba23.blend'
# www.blender.org
o Cube.003_Cube.029
v -0.054533 -0.054533 0.054533
v -0.054533 0.054533 0.054533
v -0.054533 -0.054533 -0.054533
v -0.054533 0.054533 -0.054533
v 0.090966 -0.054533 0.054533
v 0.054533 0.054533 0.054533
v 0.054533 -0.054533 -0.054533
v 0.054533 0.054533 -0.054533
v -0.066484 -0.066483 0.000000
v -0.066483 0.000000 0.066483
v -0.066483 0.066484 -0.000000
v -0.066483 0.000000 -0.066484
v -0.000000 -0.066483 -0.066484
v 0.000000 0.036904 -0.045870
v 0.066484 0.000000 -0.066483
v 0.066484 -0.066484 -0.000000
v 0.066483 0.066484 0.000000
v 0.102916 0.000000 0.066484
v 0.000000 -0.066483 0.066484
v -0.000000 0.066484 0.066483
v -0.091562 0.000000 -0.000000
v -0.000000 0.000000 -0.091562
v 0.127994 0.000000 -0.000000
v 0.000000 0.000000 0.091562
v -0.000000 -0.065524 -0.000000
v -0.000000 0.091562 -0.000000
vt 0.350239 0.898991
vt 0.208451 0.956904
vt 0.153968 0.812835
vt 0.342190 0.768990
vt 0.069557 0.931438
vt 0.000000 0.808548
vt 0.008274 0.655612
vt 0.133739 0.620634
vt 0.288956 0.623165
vt 0.165053 0.493414
vt 0.350239 0.537057
vt 0.636453 0.544007
vt 0.520268 0.479699
vt 0.575323 0.340752
vt 0.728817 0.381277
vt 0.596030 0.192737
vt 0.728817 0.194162
vt 0.225684 0.472268
vt 0.050828 0.493414
vt 0.000894 0.362294
vt 0.148990 0.378537
vt 0.000000 0.135546
vt 0.219091 0.240282
vt 0.481452 0.128854
vt 0.649116 0.000000
vt 0.747924 0.543148
vt 0.728817 0.304586
vt 0.883835 0.294438
vt 0.931429 0.485300
vt 0.098332 0.000000
vt 0.221410 0.074466
vt 0.673839 0.989196
vt 0.519887 1.000000
vt 0.535906 0.723670
vt 0.727394 0.749421
vt 0.408976 0.847731
vt 0.388142 0.696516
vt 0.449121 0.554142
vt 0.582239 0.544007
vt 0.727394 0.597538
vt 0.273973 0.493414
vt 0.293133 0.309731
vt 0.371463 0.380332
vt 0.364870 0.148346
vt 0.388142 0.227716
vt 0.388142 0.291334
vt 0.389088 0.478699
vt 0.740496 0.115455
vt 0.786840 0.000000
vt 0.931429 0.044600
vt 0.930390 0.151893
vn -0.5343 -0.6549 0.5343
vn -0.7071 0.0000 0.7071
vn -1.0000 0.0000 0.0000
vn -0.6278 -0.7783 0.0000
vn -0.5773 0.5773 0.5773
vn -0.6685 0.7396 -0.0781
vn -0.4169 0.6436 -0.6418
vn -0.6714 0.0721 -0.7376
vn -0.5343 -0.6549 -0.5343
vn 0.0000 0.1042 -0.9945
vn 0.0000 -0.7783 -0.6278
vn 0.0000 0.6894 -0.7244
vn 0.3139 0.6722 -0.6705
vn 0.5612 0.0680 -0.8249
vn 0.4373 -0.6904 -0.5763
vn 0.9845 0.0498 -0.1679
vn 0.4509 -0.8831 -0.1292
vn 0.5234 0.8415 -0.1339
vn 0.4313 0.6854 0.5867
vn 0.7293 0.0624 0.6814
vn 0.5338 -0.7003 0.4739
vn -0.0444 0.0183 0.9988
vn -0.0374 -0.7799 0.6248
vn -0.0193 0.7167 0.6970
vn -0.0062 -0.9999 -0.0062
vn 0.0000 0.9933 -0.1149
s 1
f 1/1/1 10/2/2 21/3/3 9/4/4
f 10/2/2 2/5/5 11/6/6 21/3/3
f 21/3/3 11/6/6 4/7/7 12/8/8
f 9/4/4 21/3/3 12/8/8 3/9/9
f 3/9/9 12/8/8 22/10/10 13/11/11
f 12/12/8 4/13/7 14/14/12 22/15/10
f 22/15/10 14/14/12 8/16/13 15/17/14
f 13/18/11 22/19/10 15/20/14 7/21/15
f 7/21/15 15/20/14 23/22/16 16/23/17
f 15/17/14 8/16/13 17/24/18 23/25/16
f 23/26/16 17/27/18 6/28/19 18/29/20
f 16/23/17 23/22/16 18/30/20 5/31/21
f 5/32/21 18/33/20 24/34/22 19/35/23
f 18/33/20 6/36/19 20/37/24 24/34/22
f 24/34/22 20/37/24 2/38/5 10/39/2
f 19/35/23 24/34/22 10/39/2 1/40/1
f 3/41/9 13/18/11 25/42/25 9/43/4
f 13/18/11 7/21/15 16/23/17 25/42/25
f 25/42/25 16/23/17 5/31/21 19/44/23
f 9/43/4 25/42/25 19/44/23 1/45/1
f 8/16/13 14/14/12 26/46/26 17/24/18
f 14/14/12 4/13/7 11/47/6 26/46/26
f 26/48/26 11/49/6 2/50/5 20/51/24
f 17/27/18 26/48/26 20/51/24 6/28/19
